PathFileType	4	(X/Y/Z)	RBDS027\RBDS027runT35.trc
DataRate	CameraRate	NumFrames	NumMarkers	Units	OrigDataRate	OrigDataStartFrame	OrigNumFrames
150.000000	150.000000	6	33	mm	150.000000	2250	4500
Frame#	Time	L.ASIS			L.Heel.Bottom			L.Heel.Lateral			L.Heel.Top			L.Iliac.Crest			L.MT1			L.MT5			L.PSIS			L.Shank.Bottom.Lateral			L.Shank.Bottom.Medial			L.Shank.Top.Lateral			L.Shank.Top.Medial			L.Thigh.Bottom.Lateral			L.Thigh.Bottom.Medial			L.Thigh.Top.Lateral			L.Thigh.Top.Medial			R.ASIS			R.ASY			R.Heel.Bottom			R.Heel.Lateral			R.Heel.Top			R.Iliac.Crest			R.MT1			R.MT5			R.PSIS			R.Shank.Bottom.Lateral			R.Shank.Bottom.Medial			R.Shank.Top.Lateral			R.Shank.Top.Medial			R.Thigh.Bottom.Lateral			R.Thigh.Bottom.Medial			R.Thigh.Top.Lateral			R.Thigh.Top.Medial			
		X1	Y1	Z1	X2	Y2	Z2	X3	Y3	Z3	X4	Y4	Z4	X5	Y5	Z5	X6	Y6	Z6	X7	Y7	Z7	X8	Y8	Z8	X9	Y9	Z9	X10	Y10	Z10	X11	Y11	Z11	X12	Y12	Z12	X13	Y13	Z13	X14	Y14	Z14	X15	Y15	Z15	X16	Y16	Z16	X17	Y17	Z17	X18	Y18	Z18	X19	Y19	Z19	X20	Y20	Z20	X21	Y21	Z21	X22	Y22	Z22	X23	Y23	Z23	X24	Y24	Z24	X25	Y25	Z25	X26	Y26	Z26	X27	Y27	Z27	X28	Y28	Z28	X29	Y29	Z29	X30	Y30	Z30	X31	Y31	Z31	X32	Y32	Z32	X33	Y33	Z33	

2251	15	2148.588101692067	808.5494761895377	928.9122120964572	1755.762915973416	510.3178950568584	992.3681596070228	1756.755305123071	472.3720208534347	948.9159967056568	1794.784436622468	478.9157310982002	990.1892848874227	2105.103608675551	884.8402456570398	891.1620122803993	1688.44933121371	307.1083956919166	1043.396120336267	1684.915013644021	338.3852699694668	935.191193681527	1981.982042175557	850.4844957494969	994.0748816616954	1843.671064285471	417.4267128077113	930.8539392377935	1847.223130694337	450.9667112322955	974.4946833590116	1923.60286851264	427.2679597322673	919.3843959749154	1927.559885960525	457.4518988420803	963.5550219094853	2117.179746279641	454.5568865871814	882.5811006284217	2070.489625954669	445.2008645882031	935.4537253197853	2081.08323862146	557.7508228170316	871.0101475125558	2034.438547020846	548.0912103781266	919.5750909368948	2125.172586352102	845.2081826831007	1191.498006659829	2125.921501173441	70.38266014828942	1112.556800735007	1945.214202843452	28.29227484986294	1090.220418171963	1971.70053194414	46.27325033018217	1135.153636323744	1960.561563301844	71.63487783510536	1088.104063445544	2061.048302299911	902.8442169480767	1206.872163658914	2165.786282679108	24.95230210540732	1070.247307645563	2116.276964608549	33.04073346219473	1182.97304653996	1974.093894053892	860.1012852847341	1086.871277168807	2042.455654540888	135.8904225631979	1148.692132781669	2016.313088966901	161.0467226719316	1112.895311133643	2071.267896091359	210.5321334690782	1177.612540828773	2043.285628058807	232.7985332192453	1138.439770693387	2166.836598850871	488.4201543336845	1219.710258782168	2112.898213111395	461.7778393706381	1177.88583665991	2107.657808141855	580.3644433763654	1231.690398172487	2056.178193508569	555.1201940982146	1192.202566081854	
2252	15.00666666666667	2146.057498631838	809.3809736905469	928.3902173816654	1764.735589098679	502.8661057199273	991.1020945344748	1768.357705792817	465.0575896552486	947.8616280159387	1805.249092746181	473.4609952932791	989.8108156551154	2100.058889310103	885.6177609288846	891.1702932228646	1706.745321411367	296.6910171001742	1041.58926232871	1703.567255162332	327.6712717014448	933.2678457625059	1980.200510129711	851.5663451366036	995.6633700783489	1858.089916036276	413.3338657397728	930.6537079376396	1860.622565999607	446.8963202646586	974.6246461371181	1937.762116396984	425.222880704917	919.8120426711112	1940.75821926715	455.3780196457939	964.1127493459317	2128.101590850816	456.8403660187867	882.9889536372477	2082.274786619446	445.3337330108121	936.1053225126777	2087.202198620138	558.2788906675904	871.5794878332971	2041.095366264758	546.3328866696942	920.1490636089183	2125.114365346196	844.4641971252393	1191.566553298257	2102.588372402869	70.5818390940309	1112.58836549716	1921.683764886465	29.09914155675059	1090.21426927187	1948.271322575822	47.18212521108849	1135.079390311047	1937.054556334092	72.41507547422566	1087.986565862021	2061.734506574436	902.9914253889202	1207.720678593129	2142.19504344329	24.90894618277451	1070.481171373908	2092.564648459387	33.18911496069762	1182.87509075167	1973.295396305896	861.3792723733555	1088.443141198574	2021.334721475623	136.5858394003621	1148.494730277499	1995.895082581897	162.5231045823023	1112.736954528251	2052.3958049035	210.2962295720609	1177.299161215775	2024.998230522554	233.4220617898905	1138.117602666231	2156.158163751352	485.042537740548	1219.099257041521	2101.322422288299	460.2965577098244	1177.301754542223	2099.933008667327	578.9531897466885	1231.38979177942	2047.924220514651	555.6109205870978	1191.603661230478	
2253	15.01333333333333	2143.793800956097	810.9890446106933	927.8266746674271	1772.865922436024	493.9580977567363	990.2335603567853	1779.284522644841	456.5658846796174	947.1365036214966	1814.925366566079	466.8634364430793	989.7570888179159	2095.217793320495	887.1351199082804	891.2691166027225	1725.675393789866	284.9293938444972	1039.859886707944	1722.563704397293	315.8393209162107	931.5098898022295	1978.677731267969	853.223458848993	997.2956890351891	1871.954586869699	408.5892372724104	930.6583708545458	1873.263937534269	442.2502239831149	974.8422307352338	1951.14724808427	423.0785509285247	920.2420561033678	1953.034315288674	453.2823755198576	964.5886033004118	2138.690754653825	460.4811840706279	883.5137476086212	2093.764159317315	446.8651301367783	936.8611505220524	2093.146833667448	559.9792849085205	872.3165226557088	2047.706648902696	545.8570359542861	920.9683840432509	2125.287077523543	844.1876825127465	1191.57361615794	2079.346624806439	70.80031672550038	1112.611141812203	1898.049578531164	30.21768796868999	1090.265009055659	1924.795622606348	48.32645094873186	1135.072725182023	1913.497950264501	73.51709837070591	1087.97161040811	2063.255650833125	904.0615224432593	1208.535519607221	2118.592644670514	24.6983857379242	1070.645218545763	2068.872181055505	33.22471189951114	1182.693484999841	1972.734840125551	863.1964590539461	1090.087680686964	2000.081690561177	137.4830544294615	1148.338937627188	1975.181697585574	164.1090753336149	1112.695665084726	2033.175380842849	210.2821913179076	1176.986821799087	2006.204049646271	234.1918933370964	1137.891003117346	2144.653931450589	482.174995100639	1218.242003063772	2088.871984279638	459.5321375582617	1176.532389905945	2091.748203092432	578.0823931514735	1230.921185580374	2039.147467202474	556.8471734199832	1190.872463688928	
2254	15.02	2141.84705294885	813.3172227686773	927.276000157957	1780.295447596746	483.5328054334166	989.832870699293	1789.624945775939	446.8849472451342	946.7868096145368	1823.902964450945	459.0614520684537	990.0605696669711	2090.840643357064	889.3394937018957	891.4577327404427	1745.329760904018	271.985712552843	1038.228149593244	1741.95244468543	303.0656869119122	929.9375858465003	1977.440212775617	855.4159522351038	998.8862765373805	1885.274369885135	403.1568951975086	930.877537520191	1885.156120538298	436.980468983034	975.1312642675073	1963.728165234282	420.7534886807196	920.6655616872577	1964.359218224254	451.0743141969039	964.9717229503315	2148.874201079836	465.3814501804575	884.1275880228638	2104.828130532725	449.720765923848	937.6622030564973	2098.913231206434	562.7936745116365	873.1658294287996	2054.219668362825	546.6469805602233	921.9541686047418	2125.649787752734	844.4133170234263	1191.557874354945	2056.232751271275	71.08462420590615	1112.629767762002	1874.363049965293	31.80635824928979	1090.372339168921	1901.321189731033	49.82868980461257	1135.143590727871	1889.972345845465	75.08507430060529	1088.076131018902	2065.458914468934	905.9124854128021	1209.282533236861	2094.968728965382	24.37671846311832	1070.736870205256	2045.218537796465	33.21788555110179	1182.445715923349	1972.415938176647	865.494560647817	1091.714401893091	1978.761937742854	138.7289191132749	1148.234134588849	1954.232152100354	165.9633706361102	1112.782828467583	2013.684882329107	210.6568104337098	1176.704045493642	1986.987490839326	235.2815034871634	1137.782734896804	2132.480473520652	479.9879370718822	1217.179642064197	2075.742271874325	459.6414137128601	1175.611803390897	2083.242005310437	577.8604928812531	1230.313842470332	2030.006711959313	558.9192156154312	1190.05156563591	
2255	15.02666666666667	2140.249200846145	816.3110091146677	926.7797303169684	1787.216903009769	471.5523609671662	989.9348029519754	1799.513381860335	436.0054591907157	946.8315932811221	1832.321478652488	450.0101389175484	990.7248047833779	2087.134036776495	892.1952488118476	891.7224531934104	1765.803835659394	258.0522911544677	1036.720228491158	1761.792068751779	289.5214344800215	928.5687793761524	1976.503929584004	858.1132105451638	1000.362702940251	1898.103723453735	397.0129793670035	931.3075540347407	1896.354972021552	431.0371688733052	975.4811596026572	1975.522432159695	418.1632030081845	921.0816272652381	1974.751277523884	448.6463427630919	965.2705812774229	2158.600215266742	471.4065165335606	884.7948501533475	2115.361438575595	453.7887727920576	938.4432961334747	2104.507485125459	566.6358935275382	874.0551004096052	2060.586663218281	548.6455669629015	923.0031472409611	2126.177842861709	845.1720974361397	1191.544689439828	2033.287872190297	71.47683061309314	1112.662320792765	1850.696684709251	34.03147057419928	1090.523267520739	1877.912999494265	51.81481708058264	1135.290790346418	1866.580662369737	77.26538760412117	1088.304952688967	2068.174789310013	908.4036919550879	1209.926321903746	2071.311263714378	24.00499343677202	1070.764395007861	2021.621320600092	33.23281193618143	1182.154792985898	1972.346192921154	868.2266890480422	1093.250067547603	1957.442324358175	140.4656627944127	1148.187040118382	1933.129101439029	168.2374018193171	1112.991151094626	1993.997161105367	211.5806104212456	1176.475722579622	1967.446572999952	236.8537500332279	1137.795317051786	2119.792194445108	478.63470087553	1215.963574488948	2062.130753693267	460.7676377572542	1174.573575649813	2074.547767202414	578.387539749521	1229.60496193322	2020.664528854651	561.9129775860026	1189.179043763387	
2256	15.03333333333333	2139.01718461391	819.9201570965856	926.3647436908623	1793.865981686216	458.0082398122426	990.5334977503765	1809.123407058254	423.9243495287189	947.2606094087266	1840.363305437671	439.6862755576725	991.7235414180603	2084.235172940252	895.6796420585847	892.0384851044048	1787.186400162746	243.3460196131034	1035.367586489619	1782.145076689173	275.3670694180765	927.4193266612117	1975.87531761264	861.2904412028851	1001.670045490054	1910.535251913033	390.1499487199063	931.9316593513523	1906.959594023335	424.3729946802817	975.888029835144	1986.591164152288	415.2269131500382	921.4968721573579	1984.274929743179	445.8816937349616	965.5115314012633	2167.83486136216	478.3942959405371	885.4751803405522	2125.284557700356	458.9275333644637	939.1384634453901	2109.940527286378	571.3981048298585	874.9030602224459	2066.764928266654	551.7591064205069	923.9984583659806	2126.863399377231	846.482779801282	1191.543183263125	2010.562492487993	72.00286504851391	1112.736381483766	1827.147101479631	37.05775726886419	1090.694197880756	1854.657264897328	54.40840151030125	1135.501908450391	1843.451193619696	80.19681354707413	1088.649398123563	2071.241811033711	911.4122595290308	1210.431439387507	2047.611549502985	23.63449838247572	1070.743122400519	1998.099785867152	33.32028422006953	1181.846890856488	1972.535274914083	871.355879166463	1094.643249300223	1936.199348789462	142.8175532466372	1148.202022038808	1911.983765578669	171.0602074722599	1113.297154320562	1974.18896679146	213.1945706118515	1176.321596039166	1947.696879799824	239.0470587400175	1137.913723606525	2106.737776077454	478.2422232326076	1214.655017195016	2048.231828377717	463.0279905089855	1173.451990117015	2065.789000767272	579.7469921129223	1228.838199517733	2011.280742304652	565.8985943770248	1188.287984726457	
